<svg width="1519" height="1519" viewBox="0 0 1519 1519" fill="none" xmlns="http://www.w3.org/2000/svg">
<circle cx="759.5" cy="759.5" r="752" stroke="black" stroke-width="15"/>
<path d="M759.5 219C461.477 219 219 461.477 219 759.5C219 1057.52 461.477 1300 759.5 1300C1057.52 1300 1300 1057.52 1300 759.5C1300 461.477 1057.52 219 759.5 219ZM712.726 304.773C714.389 304.565 716.218 304.898 717.923 304.773V343.731H801.077V304.732C907.458 314.249 1007.12 360.838 1082.64 436.361C1158.16 511.885 1204.75 611.542 1214.27 717.923H1175.27V801.077H1214.27C1204.75 907.458 1158.16 1007.12 1082.64 1082.64C1007.12 1158.16 907.458 1204.75 801.077 1214.27V1175.27H717.923V1214.27C611.542 1204.75 511.885 1158.16 436.361 1082.64C360.838 1007.12 314.249 907.458 304.732 801.077H343.731V717.923H304.732C324.356 499.935 495.445 326.684 712.726 304.732V304.773ZM1012.91 506.13L659.508 659.466L506.089 1012.87L859.493 859.534L1012.91 506.13V506.13ZM759.5 697.135C792.762 697.135 821.865 726.238 821.865 759.5C821.865 792.762 792.762 821.865 759.5 821.865C726.238 821.865 697.135 792.762 697.135 759.5C697.135 726.238 726.238 697.135 759.5 697.135Z" fill="black"/>
</svg>
