<svg width="1519" height="1519" viewBox="0 0 1519 1519" fill="none" xmlns="http://www.w3.org/2000/svg">
<circle cx="759.5" cy="759.5" r="752" stroke="black" stroke-width="15"/>
<path d="M761 211C458.285 211 212 457.285 212 760C212 1062.72 458.285 1309 761 1309C1063.72 1309 1310 1062.72 1310 760C1310 457.285 1063.72 211 761 211ZM1138.44 1013.38H1019.08C1015.38 1013.38 1011.75 1012.4 1008.55 1010.54C1005.35 1008.69 1002.69 1006.03 1000.84 1002.83L958.244 929.768C955.44 924.991 954.624 919.303 955.974 913.931L995.196 755.777C995.983 752.59 997.502 749.631 999.632 747.134C1001.76 744.637 1004.45 742.671 1007.47 741.392L1081.64 709.983C1085.26 708.446 1089.24 707.953 1093.13 708.559C1097.02 709.166 1100.67 710.847 1103.65 713.414L1213.53 807.958C1216.24 810.29 1218.31 813.272 1219.55 816.623C1220.79 819.975 1221.16 823.587 1220.63 827.121C1211.53 889.552 1189.72 949.452 1156.54 1003.12C1154.67 1006.25 1152.02 1008.84 1148.84 1010.64C1145.67 1012.44 1142.09 1013.38 1138.44 1013.38ZM440.363 710.194L514.531 741.603C517.554 742.882 520.237 744.848 522.368 747.345C524.498 749.842 526.017 752.801 526.804 755.988L566.026 914.142C567.376 919.515 566.56 925.202 563.756 929.979L521.156 1002.83C519.306 1006.03 516.648 1008.69 513.448 1010.54C510.247 1012.4 506.616 1013.38 502.917 1013.38H383.563C379.953 1013.39 376.403 1012.46 373.251 1010.7C370.1 1008.94 367.452 1006.4 365.562 1003.33C332.388 949.663 310.576 889.763 301.476 827.332C300.941 823.798 301.312 820.186 302.554 816.834C303.796 813.483 305.868 810.502 308.576 808.169L418.456 713.625C421.43 711.078 425.054 709.409 428.923 708.803C432.791 708.197 436.752 708.678 440.363 710.194V710.194ZM1118.54 479.931L1070.84 615.544C1069.88 618.316 1068.36 620.857 1066.36 623.007C1064.37 625.156 1061.95 626.867 1059.25 628.029L981.181 661.101C977.598 662.617 973.666 663.113 969.819 662.536C965.972 661.958 962.359 660.329 959.379 657.828L810.885 533.274C808.512 531.31 806.598 528.852 805.275 526.071C803.953 523.289 803.255 520.253 803.231 517.173V428.541C803.233 425.068 804.091 421.65 805.73 418.588C807.369 415.527 809.738 412.916 812.627 410.989L925.674 335.66C928.624 333.691 932.023 332.496 935.556 332.187C939.09 331.878 942.644 332.464 945.892 333.892C1010.94 362.262 1068.66 405.084 1114.68 459.106C1117.1 461.93 1118.73 465.343 1119.41 469C1120.09 472.657 1119.78 476.428 1118.54 479.931V479.931ZM596.3 335.66L709.373 410.989C712.262 412.916 714.631 415.527 716.27 418.588C717.909 421.65 718.767 425.068 718.769 428.541V517.173C718.769 520.258 718.093 523.305 716.789 526.1C715.485 528.895 713.584 531.371 711.22 533.353L562.727 657.907C559.747 660.408 556.134 662.037 552.287 662.615C548.44 663.192 544.508 662.696 540.925 661.18L462.745 628.029C460.036 626.882 457.596 625.181 455.583 623.035C453.569 620.89 452.026 618.347 451.053 615.571L403.358 479.957C402.119 476.441 401.832 472.66 402.528 468.998C403.223 465.336 404.876 461.923 407.317 459.106C453.362 405.03 511.135 362.169 576.24 333.786C579.475 332.402 583.005 331.849 586.508 332.176C590.011 332.504 593.377 333.701 596.3 335.66V335.66ZM641.988 1199.97L589.913 1068.81C588.722 1065.83 588.226 1062.62 588.464 1059.42C588.702 1056.21 589.667 1053.11 591.285 1050.34L631.325 981.712C633.174 978.509 635.832 975.848 639.033 973.995C642.234 972.142 645.865 971.162 649.564 971.154H872.436C876.135 971.162 879.766 972.142 882.967 973.995C886.168 975.848 888.826 978.509 890.675 981.712L930.741 1050.34C932.364 1053.11 933.333 1056.21 933.576 1059.41C933.818 1062.61 933.327 1065.83 932.14 1068.81L880.434 1199.91C879.169 1203.12 877.14 1205.97 874.522 1208.21C871.904 1210.45 868.778 1212.01 865.416 1212.77C796.803 1228.51 725.514 1228.51 656.901 1212.77C653.564 1212 650.463 1210.44 647.865 1208.21C645.267 1205.98 643.25 1203.15 641.988 1199.97V1199.97Z" fill="black"/>
</svg>
