<svg width="1519" height="1519" viewBox="0 0 1519 1519" fill="none" xmlns="http://www.w3.org/2000/svg">
<circle cx="759.5" cy="759.5" r="752" stroke="black" stroke-width="15"/>
<path d="M1150.43 451.157V434.848C1150.43 421.258 1146.35 410.386 1138.2 402.231C1130.04 394.077 1119.85 390 1107.61 390H1019.94C991.397 390 977.124 404.949 977.124 434.848V451.157C936.346 472.902 907.122 496.006 889.451 520.468H628.471C610.8 496.006 581.576 472.902 540.798 451.157V434.848C540.798 404.949 526.525 390 497.981 390H410.307C398.074 390 387.879 394.077 379.724 402.231C371.568 410.386 367.49 421.258 367.49 434.848V451.157C328.071 468.825 296.468 496.006 272.681 532.7C248.894 569.394 237 608.806 237 650.937C237 698.503 249.913 739.275 275.739 773.251L237 987.3V1003.61C237 1038.94 249.233 1068.84 273.7 1093.31C298.167 1117.77 328.071 1130 363.412 1130H367.49C409.628 1130 444.289 1112.33 471.475 1077L567.303 934.298C589.052 949.247 609.441 956.722 628.471 956.722C663.812 956.722 688.279 941.772 701.872 911.873H816.051C829.643 941.772 854.11 956.722 889.451 956.722C909.84 956.722 930.23 947.888 950.619 930.22L1046.45 1077C1073.63 1112.33 1108.29 1130 1150.43 1130H1158.59C1193.93 1130 1223.83 1117.77 1248.3 1093.31C1272.77 1068.84 1285 1038.94 1285 1003.61V987.3L1250.34 773.251C1270.73 735.197 1280.92 694.426 1280.92 650.937C1280.92 608.806 1269.03 569.394 1245.24 532.7C1221.45 496.006 1189.85 468.825 1150.43 451.157ZM1062.76 520.468C1100.82 520.468 1132.08 533.039 1156.55 558.182C1181.02 583.324 1193.25 614.242 1193.25 650.937C1193.25 684.913 1180.34 716.85 1154.51 746.749H1150.43C1127.32 769.853 1098.1 781.405 1062.76 781.405C1026.06 781.405 995.135 769.174 969.988 744.711C944.842 720.248 932.268 688.99 932.268 650.937C932.268 614.242 944.842 583.324 969.988 558.182C995.135 533.039 1026.06 520.468 1062.76 520.468ZM455.163 520.468C491.864 520.468 522.787 533.039 547.934 558.182C573.08 583.324 585.654 614.242 585.654 650.937C585.654 688.99 573.08 720.248 547.934 744.711C522.787 769.174 491.864 781.405 455.163 781.405C419.822 781.405 390.598 769.853 367.49 746.749H363.412C337.586 716.85 324.673 684.913 324.673 650.937C324.673 614.242 336.907 583.324 361.374 558.182C385.84 533.039 417.104 520.468 455.163 520.468ZM398.074 1026.03C393.996 1036.91 383.802 1042.34 367.49 1042.34H363.412C337.586 1042.34 324.673 1029.43 324.673 1003.61V999.532L349.14 838.485C376.326 858.871 411.667 869.063 455.163 869.063C470.115 869.063 488.466 866.345 510.214 860.909L398.074 1026.03ZM816.051 826.253H701.872C688.279 796.354 663.812 781.405 628.471 781.405C657.016 744.711 671.288 701.221 671.288 650.937C671.288 630.551 669.929 616.281 667.21 608.127H850.712C847.993 616.281 846.634 630.551 846.634 650.937C846.634 701.221 860.907 744.711 889.451 781.405C854.11 781.405 829.643 796.354 816.051 826.253ZM1154.51 1042.34H1150.43C1138.2 1042.34 1128 1038.26 1119.85 1030.11L1011.79 864.986C1033.53 870.422 1051.88 873.141 1066.84 873.141C1107.61 873.141 1142.96 864.307 1172.86 846.639L1193.25 999.532V1003.61C1193.25 1029.43 1180.34 1042.34 1154.51 1042.34ZM1019.94 695.785C1019.94 708.017 1024.02 718.209 1032.18 726.364C1040.33 734.518 1050.53 738.595 1062.76 738.595C1076.35 738.595 1087.23 734.518 1095.38 726.364C1103.54 718.209 1107.61 708.017 1107.61 695.785C1119.85 695.785 1130.04 691.708 1138.2 683.554C1146.35 675.399 1150.43 664.527 1150.43 650.937C1150.43 638.705 1146.35 628.512 1138.2 620.358C1130.04 612.204 1119.85 608.127 1107.61 608.127C1107.61 579.587 1092.66 565.317 1062.76 565.317C1034.21 565.317 1019.94 579.587 1019.94 608.127C991.397 608.127 977.124 622.397 977.124 650.937C977.124 680.836 991.397 695.785 1019.94 695.785ZM497.981 565.317C497.981 576.189 493.563 586.042 484.728 594.876C475.892 603.71 466.038 608.127 455.163 608.127C442.93 608.127 432.396 603.71 423.56 594.876C414.725 586.042 410.307 576.189 410.307 565.317C410.307 553.085 414.725 542.553 423.56 533.719C432.396 524.885 442.93 520.468 455.163 520.468C466.038 520.468 475.892 524.885 484.728 533.719C493.563 542.553 497.981 553.085 497.981 565.317ZM585.654 650.937C585.654 663.168 581.236 673.701 572.401 682.534C563.565 691.368 553.031 695.785 540.798 695.785C529.923 695.785 520.069 691.368 511.233 682.534C502.398 673.701 497.981 663.168 497.981 650.937C497.981 640.064 502.398 630.211 511.233 621.377C520.069 612.544 529.923 608.127 540.798 608.127C553.031 608.127 563.565 612.544 572.401 621.377C581.236 630.211 585.654 640.064 585.654 650.937ZM410.307 650.937C410.307 663.168 406.23 673.701 398.074 682.534C389.918 691.368 379.724 695.785 367.49 695.785C355.257 695.785 345.062 691.368 336.907 682.534C328.751 673.701 324.673 663.168 324.673 650.937C324.673 640.064 328.751 630.211 336.907 621.377C345.062 612.544 355.257 608.127 367.49 608.127C379.724 608.127 389.918 612.544 398.074 621.377C406.23 630.211 410.307 640.064 410.307 650.937ZM497.981 738.595C497.981 750.826 493.563 761.019 484.728 769.174C475.892 777.328 466.038 781.405 455.163 781.405C442.93 781.405 432.396 777.328 423.56 769.174C414.725 761.019 410.307 750.826 410.307 738.595C410.307 726.364 414.725 716.171 423.56 708.017C432.396 699.862 442.93 695.785 455.163 695.785C466.038 695.785 475.892 699.862 484.728 708.017C493.563 716.171 497.981 726.364 497.981 738.595ZM716.144 650.937H801.778V738.595H716.144V650.937Z" fill="black"/>
</svg>
