<svg width="28" height="27" viewBox="0 0 28 27" fill="none" xmlns="http://www.w3.org/2000/svg">
<path fill-rule="evenodd" clip-rule="evenodd" d="M10.1149 21.0322L9.39154 21.7475L14.0374 26.353L18.6833 21.7475L17.9599 21.0322L14.5488 24.4079V9.21729H13.5261V24.4079L10.1149 21.0322Z" fill="black" fill-opacity="0.87"/>
<path fill-rule="evenodd" clip-rule="evenodd" d="M22.9612 7.42902C22.9612 7.35373 22.9737 7.28471 22.9737 7.20941C22.9737 3.2251 19.6748 0 15.69 0C12.8151 0 10.3394 1.68157 9.17951 4.10353C8.67439 3.85255 8.11314 3.70824 7.50824 3.70824C5.66236 3.70824 4.13452 5.1702 3.83519 6.92706C1.64009 7.68 0.0561218 9.6502 0.0561218 12.0973C0.0561218 15.178 2.55679 17.6941 5.64365 17.6941H11.3497V16.6902H5.69354C3.14298 16.6902 1.06637 14.6071 1.06637 12.0659C1.06637 10.0957 2.32605 8.45804 4.19688 7.81804L4.72071 7.64235L4.81425 7.09647C5.03875 5.76 6.19242 4.66196 7.55189 4.66196C7.98218 4.66196 8.40623 4.76235 8.79287 4.95686L9.63474 5.37725L10.0401 4.52392C11.0753 2.36549 13.2891 0.972549 15.6775 0.972549C19.1261 0.972549 21.9697 3.65804 21.9697 7.09647C21.9697 7.91843 21.9572 8.35765 21.9572 8.35765L22.9051 8.36392C25.1938 8.39529 26.996 10.2463 26.996 12.5302C26.996 14.8078 25.1376 16.6776 22.849 16.6902L22.6494 16.6965H16.588V17.7004H22.8864C25.6926 17.7004 27.9938 15.3663 27.9938 12.549C27.9938 9.72549 25.7862 7.43529 22.9612 7.42902Z" fill="black" fill-opacity="0.87"/>
</svg>
