<svg width="1440" height="1122" viewBox="0 0 1440 1122" fill="none" xmlns="http://www.w3.org/2000/svg">
<path opacity="0.2" fill-rule="evenodd" clip-rule="evenodd" d="M0 61.7036C0 61.7036 283.196 147.642 548.438 147.642C813.679 147.642 949.747 30.753 1106.44 5.67332C1263.13 -19.4064 1440 61.7036 1440 61.7036V1324.75H0V61.7036Z" fill="#D1C4E9"/>
<g opacity="0.1">
<path fill-rule="evenodd" clip-rule="evenodd" d="M0 978.092C0 978.092 283.196 1090.58 548.438 1090.58C813.679 1090.58 949.747 937.58 1106.44 904.753C1263.13 871.926 1440 978.092 1440 978.092V1125H0V978.092Z" fill="black"/>
<mask id="mask0_546_1056" style="mask-type:alpha" maskUnits="userSpaceOnUse" x="0" y="898" width="1440" height="227">
<path fill-rule="evenodd" clip-rule="evenodd" d="M0 978.092C0 978.092 283.196 1090.58 548.438 1090.58C813.679 1090.58 949.747 937.58 1106.44 904.753C1263.13 871.926 1440 978.092 1440 978.092V1125H0V978.092Z" fill="white"/>
</mask>
<g mask="url(#mask0_546_1056)">
<ellipse cx="796.5" cy="1261.17" rx="253.5" ry="278.28" fill="#673AB7"/>
<ellipse cx="538.5" cy="1137.01" rx="494.5" ry="392.25" fill="url(#paint0_linear_546_1056)"/>
<ellipse cx="1114.5" cy="911.5" rx="255.5" ry="380.5" fill="url(#paint1_linear_546_1056)"/>
<ellipse cx="1440" cy="1052.07" rx="210" ry="168.071" fill="#E91E63"/>
<ellipse cx="264.5" cy="1095.68" rx="494.5" ry="392.25" fill="#B2EBF2"/>
<ellipse cx="169" cy="999.576" rx="252" ry="259.949" fill="url(#paint2_linear_546_1056)"/>
<ellipse cy="858.393" rx="217" ry="174.393" fill="#D1C4E9"/>
</g>
</g>
<defs>
<linearGradient id="paint0_linear_546_1056" x1="766.225" y1="187.323" x2="-747.718" y2="1042.84" gradientUnits="userSpaceOnUse">
<stop stop-color="#00BCD4"/>
<stop offset="1" stop-color="#673AB7"/>
</linearGradient>
<linearGradient id="paint1_linear_546_1056" x1="1103.19" y1="-20.2085" x2="298.346" y2="660.923" gradientUnits="userSpaceOnUse">
<stop stop-color="#673AB7"/>
<stop offset="1" stop-color="#D1C4E9"/>
<stop offset="1" stop-color="#D1C4E9"/>
</linearGradient>
<linearGradient id="paint2_linear_546_1056" x1="56.9271" y1="617.646" x2="-191.144" y2="1063.18" gradientUnits="userSpaceOnUse">
<stop stop-color="#E91E63"/>
<stop offset="1" stop-color="#F8BBD0"/>
</linearGradient>
</defs>
</svg>
