<svg width="1519" height="1519" viewBox="0 0 1519 1519" fill="none" xmlns="http://www.w3.org/2000/svg">
<circle cx="759.5" cy="759.5" r="752" stroke="black" stroke-width="15"/>
<path d="M562.214 325.116L536.763 986.114C502.514 968.554 459.546 960.957 414.46 967.349C317.245 981.104 247.244 1054.37 258.112 1130.97C268.982 1207.58 356.6 1258.52 453.81 1244.76C540.087 1232.54 604.849 1173.45 610.733 1106.77L610.752 1106.81C610.765 1106.66 610.773 1106.43 610.787 1106.26C610.931 1104.57 611.013 1102.85 611.076 1101.15C614.696 1032.3 636.858 509.32 636.858 509.32L1182.71 453.133L1158.06 924.136C1123.03 904.657 1078.01 895.98 1030.66 902.683C933.451 916.452 863.453 989.702 874.323 1066.31C885.188 1142.91 972.806 1193.86 1070.02 1180.08C1158.13 1167.62 1223.78 1106.26 1227.23 1037.84L1227.27 1037.8C1229.11 1007.05 1259.91 297.089 1261 272L562.214 325.116Z" fill="black"/>
</svg>
