<svg width="1519" height="1519" viewBox="0 0 1519 1519" fill="none" xmlns="http://www.w3.org/2000/svg">
<path d="M761.48 146C414.921 146 133 428.016 133 774.646C133 992.423 243.223 1191.61 427.858 1307.44C446.225 1319.09 470.492 1313.44 482.056 1295.03C493.621 1276.62 488.054 1252.35 469.648 1240.83C403.16 1199.09 347.92 1144.88 305.66 1082.39L346.898 1058.57C365.716 1047.69 372.168 1023.66 361.293 1004.84C350.379 985.974 326.308 979.562 307.568 990.439L266.271 1014.28C236.281 952.182 217.972 884.224 213.075 813.376H256.85C278.58 813.376 296.18 795.772 296.18 774.037C296.18 752.303 278.58 734.699 256.85 734.699H213.272C218.483 662.554 237.578 594.183 268.039 532.362L307.566 555.179C313.529 558.639 320.301 560.458 327.195 560.45C340.782 560.45 353.997 553.389 361.293 540.781C372.166 521.957 365.717 497.902 346.898 487.043L307.764 464.463C347.232 406.892 397.319 357.148 455.233 318.146L477.376 356.501C484.671 369.148 497.886 376.17 511.474 376.17C518.367 376.177 525.139 374.358 531.101 370.898C549.92 360.021 556.371 335.986 545.496 317.162L523.431 278.965C584.059 249.717 650.861 231.444 721.282 226.33V275.346C721.282 297.08 738.882 314.684 760.612 314.684C782.342 314.684 799.942 297.08 799.942 275.346V226.173C871.956 231.188 940.214 250.01 1001.98 280.201L980.645 317.141C969.771 335.963 976.221 360.02 995.04 370.877C1001 374.338 1007.77 376.157 1014.67 376.149C1028.25 376.149 1041.47 369.127 1048.77 356.48L1070 319.679C1127.42 358.783 1176.99 408.33 1216.12 465.742L1179.28 487.024C1160.46 497.9 1154.01 521.937 1164.89 540.757C1172.18 553.406 1185.4 560.427 1198.99 560.427C1205.67 560.427 1212.44 558.736 1218.61 555.157L1255.64 533.776C1285.87 595.577 1304.75 663.867 1309.78 735.917H1266.6C1244.87 735.917 1227.27 753.521 1227.27 775.256C1227.27 796.99 1244.87 814.594 1266.6 814.594H1309.76C1304.79 884.518 1286.91 951.588 1257.53 1012.9L1218.6 990.416C1199.82 979.539 1175.69 986.03 1164.87 1004.82C1154 1023.64 1160.45 1047.69 1179.27 1058.55L1218.32 1081.11C1175.18 1145.33 1118.23 1200.84 1049.5 1243.17C1030.99 1254.57 1025.27 1278.83 1036.64 1297.29C1044.09 1309.35 1056.95 1316 1070.16 1316C1077.44 1316 1084.57 1313.98 1090.76 1310.16C1278.14 1194.72 1390 994.488 1390 774.626C1390 428.016 1108.04 146 761.482 146H761.48ZM1051.7 651.989C1070.5 641.112 1076.95 617.079 1066.09 598.255C1055.24 579.452 1031.17 573 1012.37 583.877L798.724 707.242C787.318 700.791 774.32 696.798 760.279 696.798C716.917 696.798 681.815 731.945 681.815 775.237C681.815 818.568 716.937 853.717 760.279 853.717C803.641 853.717 838.743 818.568 838.743 775.237C838.743 775.158 838.723 775.06 838.723 774.98L1051.7 651.989Z" fill="black"/>
<circle cx="759.5" cy="759.5" r="752" stroke="black" stroke-width="15"/>
</svg>
